<svg width="200" height="150" viewBox="0 0 300 200" fill="none" xmlns="http://www.w3.org/2000/svg">
<path d="M49.6723 194.677C49.6723 198.532 52.2944 201.655 55.5287 201.655H311.471C314.705 201.655 317.327 198.532 317.327 194.677C317.327 190.822 314.705 187.699 311.471 187.699H55.5287C52.2944 187.699 49.6723 190.823 49.6723 194.677Z" fill="#00FF00"/>
<path d="M364.421 188.893C339.844 169.119 308.521 153.544 273.688 143.711L256.977 91.9383C253.024 79.6911 241.301 70.0965 230.288 70.0965H189.356V37.9782C189.356 34.1234 186.734 31 183.5 31C180.266 31 177.644 34.1234 177.644 37.9782V70.0965H136.712C125.699 70.0965 113.976 79.6911 110.023 91.9383L93.3117 143.711C58.4787 153.544 27.1549 169.119 2.57915 188.893C0.966694 190.191 0 192.358 0 194.677C0 196.996 0.966694 199.162 2.57915 200.46C24.5804 218.164 52.2389 232.632 82.7913 242.479C83.163 258.821 96.1423 272 112.055 272H254.945C270.858 272 283.837 258.821 284.209 242.479C314.761 232.633 342.42 218.164 364.421 200.46C366.033 199.162 367 196.996 367 194.677C367 192.358 366.033 190.191 364.421 188.893ZM120.955 96.9486C123.172 90.0793 130.536 84.0538 136.712 84.0538H230.288C236.464 84.0538 243.828 90.0802 246.045 96.9486L260.803 142.671H106.197L120.955 96.9486ZM277.629 230.131H135.481C132.246 230.131 129.624 233.254 129.624 237.109C129.624 240.964 132.246 244.087 135.481 244.087H272.323C271.063 251.859 263.618 258.044 254.945 258.044H112.055C103.382 258.044 95.9369 251.859 94.6766 244.087H112.055C115.29 244.087 117.912 240.964 117.912 237.109C117.912 233.254 115.29 230.131 112.055 230.131H89.3708C62.0987 221.735 37.1865 209.564 16.6977 194.677C39.4361 178.145 67.4445 165.072 98.3302 156.627H268.67C299.556 165.071 327.564 178.145 350.302 194.677C329.814 209.563 304.901 221.734 277.629 230.131Z" fill="#00FF00"/>
</svg>
